<?xml version="1.0" standalone="no"?><!DOCTYPE svg PUBLIC "-//W3C//DTD SVG 1.1//EN" "http://www.w3.org/Graphics/SVG/1.1/DTD/svg11.dtd"><svg t="1711268961486" class="icon" viewBox="0 0 1024 1024" version="1.1" xmlns="http://www.w3.org/2000/svg" p-id="5035" xmlns:xlink="http://www.w3.org/1999/xlink" width="200" height="200"><path d="M868 545.5L536.1 163a31.96 31.96 0 0 0-48.3 0L156 545.5a7.97 7.97 0 0 0 6 13.2h81c4.6 0 9-2 12.1-5.5L474 300.9V864c0 4.4 3.6 8 8 8h60c4.4 0 8-3.6 8-8V300.9l218.9 252.3c3 3.5 7.4 5.5 12.1 5.5h81c6.8 0 10.5-8 6-13.2z" p-id="5036"></path></svg>